<?xml version="1.0" standalone="no"?>
<!DOCTYPE svg PUBLIC "-//W3C//DTD SVG 20010904//EN"
 "http://www.w3.org/TR/2001/REC-SVG-20010904/DTD/svg10.dtd">
<svg version="1.0" xmlns="http://www.w3.org/2000/svg"
 width="1080.000000pt" height="796.000000pt" viewBox="0 0 1080.000000 796.000000"
 preserveAspectRatio="xMidYMid meet">

<g transform="translate(0.000000,796.000000) scale(0.100000,-0.100000)"
fill="#000000" stroke="none">
<path d="M4566 7059 c12 -13 21 -16 28 -9 12 12 5 19 -24 25 -22 4 -22 4 -4
-16z"/>
<path d="M4470 7060 c0 -5 5 -10 10 -10 6 0 10 5 10 10 0 6 -4 10 -10 10 -5 0
-10 -4 -10 -10z"/>
<path d="M7702 6244 c-6 -38 -19 -107 -27 -154 -92 -503 -152 -1086 -225
-2155 -35 -514 -71 -989 -75 -993 -5 -6 -40 65 -55 113 -7 22 -25 74 -41 115
-15 41 -112 307 -214 590 -102 283 -193 533 -202 555 -17 45 -98 274 -168 475
-26 74 -135 394 -241 710 -140 416 -200 580 -215 593 -12 9 -36 17 -54 17 -33
0 -238 -20 -241 -23 -2 -2 -50 -285 -59 -347 -4 -25 -13 -75 -20 -112 -8 -36
-17 -103 -21 -147 -4 -45 -10 -81 -14 -81 -4 0 -8 -23 -9 -51 -1 -28 -6 -60
-12 -70 -6 -13 -6 -19 1 -20 5 -1 15 -3 20 -4 6 -1 16 -3 24 -4 9 -1 12 -8 9
-20 -3 -12 3 -24 17 -34 16 -11 20 -21 15 -36 -4 -15 -1 -23 10 -27 10 -4 15
-14 12 -25 -3 -11 -1 -22 4 -25 5 -3 9 -18 9 -33 0 -15 5 -32 11 -38 8 -8 8
-19 -2 -42 -8 -17 -16 -31 -19 -31 -3 0 -6 -24 -8 -53 -2 -28 -7 -53 -13 -55
-5 -2 -9 -8 -9 -13 0 -6 5 -7 10 -4 8 5 16 -49 11 -78 -1 -5 3 -6 9 -2 6 4 10
-7 10 -29 0 -19 5 -38 10 -41 6 -3 10 -12 10 -19 0 -19 -48 -26 -65 -10 -7 8
-25 14 -39 14 -19 0 -27 7 -32 24 -7 29 -55 51 -73 33 -6 -6 -11 -22 -11 -35
0 -13 -4 -20 -10 -17 -5 3 -10 2 -10 -4 0 -6 -7 -8 -15 -5 -25 10 -17 -20 16
-59 17 -21 38 -37 46 -37 8 0 12 -4 8 -9 -3 -5 4 -12 15 -16 11 -3 20 -15 20
-25 0 -10 6 -20 13 -23 9 -3 9 -8 1 -17 -9 -9 -13 -9 -19 0 -6 9 -13 6 -25
-10 -10 -13 -22 -20 -29 -16 -14 9 -15 56 -1 56 19 0 10 26 -10 27 -13 1 -20
-4 -20 -17 0 -10 -5 -20 -12 -22 -8 -3 -2 -15 16 -32 31 -32 23 -57 -12 -35
-24 15 -35 9 -26 -15 3 -9 17 -16 29 -16 13 0 27 -4 30 -10 6 -10 45 -14 45
-5 0 3 -5 14 -12 24 -6 10 -8 26 -5 35 6 16 9 16 22 2 8 -8 15 -28 15 -45 0
-24 -4 -31 -19 -31 -11 0 -23 -4 -26 -10 -9 -15 -25 -12 -25 5 0 8 -9 15 -20
15 -11 0 -20 -4 -20 -10 0 -5 -6 -10 -14 -10 -16 0 -31 34 -22 49 3 5 -2 12
-11 15 -10 4 -14 4 -10 0 4 -4 1 -14 -6 -23 -8 -9 -31 -77 -52 -151 -122 -437
-309 -886 -516 -1244 -87 -150 -79 -138 -166 -268 -40 -59 -73 -112 -73 -116
0 -5 -9 -17 -19 -26 -11 -10 -18 -27 -16 -38 2 -11 -3 -30 -11 -43 -14 -22
-14 -25 5 -37 14 -9 21 -23 21 -45 0 -37 -14 -43 -32 -13 -18 29 -26 25 -25
-12 2 -28 6 -33 25 -31 14 2 22 -3 22 -12 0 -8 -4 -15 -10 -15 -5 0 -10 -10
-10 -21 0 -24 46 -72 61 -64 5 4 9 -5 9 -19 0 -16 -6 -26 -15 -26 -9 0 -12 -6
-9 -15 4 -8 13 -15 22 -15 24 0 1 -18 -28 -22 -16 -2 -26 -10 -28 -23 -2 -16
6 -23 43 -34 l46 -14 37 43 c20 24 57 67 82 95 71 82 213 291 317 463 199 332
378 724 522 1144 41 120 103 331 106 358 0 9 4 21 8 27 4 6 12 31 17 55 5 24
25 100 44 170 19 70 65 281 102 468 37 187 71 337 75 333 4 -5 31 -73 59 -153
28 -80 67 -188 87 -240 19 -52 79 -219 133 -370 54 -151 232 -642 395 -1090
162 -448 344 -948 402 -1110 59 -162 108 -297 109 -299 4 -5 232 39 274 53 52
17 59 49 59 266 2 438 25 958 72 1600 45 626 68 878 79 885 9 5 69 -238 146
-585 135 -617 277 -1098 449 -1525 370 -920 802 -1480 1355 -1759 296 -150
573 -197 932 -159 32 3 56 9 53 13 -2 4 -62 10 -132 14 -284 15 -501 75 -723
201 -665 375 -1150 1276 -1479 2750 -87 389 -154 797 -306 1865 -48 333 -91
622 -96 643 -15 57 -36 65 -194 73 l-140 7 -13 -69z m-1722 -963 c0 -6 -4 -13
-10 -16 -5 -3 -10 1 -10 9 0 9 5 16 10 16 6 0 10 -4 10 -9z m-30 -25 c0 -20
-27 -40 -35 -26 -3 5 0 10 7 10 9 0 9 3 -2 10 -13 9 -13 11 0 19 17 11 30 5
30 -13z m-190 -592 c0 -8 -5 -12 -10 -9 -6 4 -8 11 -5 16 9 14 15 11 15 -7z
m110 -243 c0 -20 -17 -31 -37 -24 -7 3 -13 13 -13 24 0 14 7 19 25 19 18 0 25
-5 25 -19z m-46 -86 c-3 -18 0 -25 11 -25 11 0 15 -10 14 -37 -2 -29 -3 -32
-6 -11 -2 14 -11 29 -19 32 -17 7 -44 -3 -44 -16 0 -5 -4 -7 -10 -3 -12 8 -1
35 15 35 7 0 16 11 19 25 4 14 10 25 16 25 5 0 7 -11 4 -25z m46 10 c0 -8 -2
-15 -4 -15 -2 0 -6 7 -10 15 -3 8 -1 15 4 15 6 0 10 -7 10 -15z m-1020 -1799
c0 -2 -7 -9 -15 -16 -12 -10 -15 -10 -15 4 0 9 7 16 15 16 8 0 15 -2 15 -4z
m71 -71 c5 4 9 1 9 -4 0 -16 -15 -13 -30 4 -7 8 -8 20 -3 27 6 9 9 7 11 -10 2
-12 8 -20 13 -17z m-57 -26 c-8 -13 -24 -1 -24 18 0 13 3 13 15 3 8 -7 12 -16
9 -21z m86 -209 c0 -24 -6 -25 -26 -6 -19 20 -18 26 6 26 13 0 20 -7 20 -20z
m-60 -115 c0 -8 -4 -15 -10 -15 -5 0 -10 7 -10 15 0 8 5 15 10 15 6 0 10 -7
10 -15z m-50 -5 c0 -5 -2 -10 -4 -10 -3 0 -8 5 -11 10 -3 6 -1 10 4 10 6 0 11
-4 11 -10z"/>
<path d="M1603 6076 c-15 -18 6 -29 28 -15 12 7 12 9 -1 9 -13 0 -13 1 0 10
13 9 13 10 0 9 -8 0 -20 -6 -27 -13z"/>
<path d="M1507 6050 c-27 -10 -54 -23 -61 -29 -7 -6 -15 -9 -18 -6 -3 3 -32
-8 -66 -25 -33 -16 -65 -30 -71 -30 -5 0 -11 -3 -13 -7 -1 -5 -21 -17 -43 -28
-198 -97 -432 -296 -621 -526 -326 -395 -523 -910 -595 -1549 -19 -164 -16
-544 5 -703 73 -564 285 -1055 619 -1440 47 -53 65 -67 87 -67 16 0 32 5 35
10 3 6 28 10 56 10 27 0 57 4 67 9 9 5 48 14 86 20 37 5 71 13 74 16 4 3 -23
31 -58 62 -304 264 -530 603 -659 988 -84 253 -124 467 -141 766 -35 628 122
1225 466 1763 38 59 69 112 69 116 0 5 4 12 9 17 5 5 6 2 2 -7 -4 -8 12 8 35
35 78 90 213 226 276 277 34 28 60 55 57 60 -3 5 -1 7 4 6 16 -5 162 93 156
104 -4 6 -2 8 4 4 13 -8 103 34 96 45 -2 4 1 11 7 15 8 4 9 3 5 -4 -10 -17 -4
-15 43 10 22 12 37 26 34 31 -4 6 -1 7 6 3 16 -10 73 13 64 27 -3 6 -1 7 5 3
6 -4 24 0 39 8 16 8 22 15 15 16 -7 0 -10 5 -7 10 9 15 -14 11 -68 -10z"/>
<path d="M10142 5663 c191 -386 299 -743 360 -1193 19 -143 22 -210 23 -495 0
-211 -5 -368 -13 -435 -89 -720 -375 -1381 -850 -1958 l-85 -104 74 -74 c40
-41 79 -74 86 -74 14 0 151 166 255 310 354 491 585 1012 688 1549 48 252 61
388 67 668 10 462 -40 854 -161 1273 -58 200 -183 525 -218 567 -5 7 -37 20
-69 30 -32 10 -59 21 -59 25 0 4 -16 8 -36 8 -21 0 -33 4 -29 10 3 6 -4 10
-18 10 -13 0 -27 3 -31 7 -4 4 -17 8 -30 10 -21 3 -17 -7 46 -134z"/>
<path d="M5855 5100 c4 -6 11 -8 16 -5 14 9 11 15 -7 15 -8 0 -12 -5 -9 -10z"/>
<path d="M2880 4880 c0 -5 5 -10 10 -10 6 0 10 5 10 10 0 6 -4 10 -10 10 -5 0
-10 -4 -10 -10z"/>
<path d="M2929 4844 c-7 -9 -23 -20 -36 -25 -13 -5 -23 -17 -23 -28 0 -11 -4
-23 -10 -26 -17 -10 -11 -21 12 -22 12 -1 28 -10 37 -19 15 -16 14 -16 -4 -9
-59 22 -56 25 -75 -83 -26 -147 -41 -321 -47 -527 -17 -642 125 -1306 396
-1855 75 -153 79 -157 120 -140 17 7 44 10 61 8 38 -6 56 12 40 41 -7 15 -8
27 0 40 13 25 14 53 1 32 -7 -11 -10 -9 -16 8 -3 11 -3 26 1 33 5 8 2 9 -9 5
-9 -3 -19 -2 -22 3 -4 6 -1 10 4 10 6 0 11 9 11 21 0 11 5 17 10 14 6 -4 5 5
-2 19 -6 14 -15 26 -20 26 -4 0 -8 9 -8 20 0 21 -30 90 -40 90 -3 0 -6 9 -7
19 -1 11 -11 38 -22 62 -12 23 -21 50 -21 58 0 14 -2 14 -11 1 -9 -12 -10 -12
-5 3 7 23 -3 69 -14 62 -5 -3 -12 0 -16 6 -4 8 -3 9 4 5 16 -10 18 -17 -36
150 -69 211 -125 480 -154 729 -17 146 -17 628 0 770 16 131 50 349 59 372 5
13 3 15 -13 8 -10 -4 -34 -9 -51 -11 -27 -3 -33 0 -33 16 0 23 4 24 31 10 15
-8 19 -7 19 4 0 7 -11 17 -25 20 -14 4 -25 12 -25 19 0 7 -11 28 -24 45 -21
29 -25 31 -37 16z m111 -1964 c0 -5 -5 -10 -11 -10 -5 0 -7 5 -4 10 3 6 8 10
11 10 2 0 4 -4 4 -10z m70 -320 c0 -5 -7 -10 -15 -10 -8 0 -15 5 -15 10 0 6 7
10 15 10 8 0 15 -4 15 -10z m60 -10 c0 -5 -4 -10 -10 -10 -5 0 -10 5 -10 10 0
6 5 10 10 10 6 0 10 -4 10 -10z m100 -5 c10 -13 9 -15 -9 -15 -12 0 -21 6 -21
15 0 8 4 15 9 15 5 0 14 -7 21 -15z m46 -94 c-4 -5 0 -12 6 -15 10 -3 9 -8 -4
-18 -11 -10 -13 -19 -7 -30 6 -11 4 -18 -6 -22 -18 -7 -37 26 -29 49 4 10 1
21 -7 27 -10 7 -8 8 9 3 13 -4 22 -2 22 4 0 6 5 11 11 11 5 0 8 -4 5 -9z m30
-119 c-10 -10 -29 15 -21 28 6 9 10 8 17 -4 6 -10 7 -20 4 -24z m-11 -71 c3
-5 1 -12 -5 -16 -5 -3 -10 1 -10 9 0 18 6 21 15 7z m33 -99 c2 -7 -3 -12 -12
-12 -9 0 -16 7 -16 16 0 17 22 14 28 -4z"/>
<path d="M5710 4743 c0 -14 6 -23 15 -23 9 0 15 9 15 23 0 14 -6 24 -15 24 -9
0 -15 -10 -15 -24z"/>
<path d="M5641 4453 c-1 -34 12 -45 23 -18 3 8 1 15 -4 15 -5 0 -11 8 -13 18
-3 9 -5 2 -6 -15z"/>
<path d="M5660 4371 c0 -6 4 -13 10 -16 6 -3 7 1 4 9 -7 18 -14 21 -14 7z"/>
<path d="M4712 2459 c-19 -30 -11 -32 11 -3 10 13 14 24 10 24 -5 0 -14 -9
-21 -21z"/>
<path d="M4676 2412 c-2 -4 4 -8 14 -8 10 0 16 4 14 8 -3 4 -9 8 -14 8 -5 0
-11 -4 -14 -8z"/>
<path d="M4748 2215 c-8 -9 3 -45 13 -45 5 0 9 6 9 13 0 17 -15 39 -22 32z"/>
<path d="M9168 1086 c-26 -24 -22 -46 9 -46 7 0 13 -4 13 -10 0 -5 3 -9 8 -9
14 3 73 -14 78 -22 3 -5 14 -9 25 -9 10 0 19 -4 19 -9 0 -13 25 -20 39 -12 8
5 -14 30 -66 74 -43 37 -82 67 -88 67 -5 -1 -22 -11 -37 -24z"/>
</g>
</svg>
